<?xml version="1.0" encoding="UTF-8" standalone="no"?>
<!-- Created with Inkscape (http://www.inkscape.org/) by Toomai Glittershine for SmashWiki -->

<svg
   id="svg2"
   version="1.1"
   height="256"
   width="256"
   viewBox="0 0 256 256"
   sodipodi:docname="3DS.svg"
   inkscape:version="1.4.2 (f4327f4, 2025-05-13)"
   xml:space="preserve"
   xmlns:inkscape="http://www.inkscape.org/namespaces/inkscape"
   xmlns:sodipodi="http://sodipodi.sourceforge.net/DTD/sodipodi-0.dtd"
   xmlns="http://www.w3.org/2000/svg"
   xmlns:svg="http://www.w3.org/2000/svg"
   xmlns:rdf="http://www.w3.org/1999/02/22-rdf-syntax-ns#"
   xmlns:cc="http://creativecommons.org/ns#"
   xmlns:dc="http://purl.org/dc/elements/1.1/"><defs
     id="defs1" /><sodipodi:namedview
     id="namedview1"
     pagecolor="#505050"
     bordercolor="#ffffff"
     borderopacity="1"
     inkscape:showpageshadow="0"
     inkscape:pageopacity="0"
     inkscape:pagecheckerboard="1"
     inkscape:deskcolor="#505050"
     inkscape:zoom="1.5761719"
     inkscape:cx="35.846344"
     inkscape:cy="127.20694"
     inkscape:window-width="1920"
     inkscape:window-height="1009"
     inkscape:window-x="-8"
     inkscape:window-y="60"
     inkscape:window-maximized="1"
     inkscape:current-layer="svg2" /><metadata
     id="metadata7"><rdf:RDF><cc:Work
         rdf:about=""><dc:format>image/svg+xml</dc:format><dc:type
           rdf:resource="http://purl.org/dc/dcmitype/StillImage" /></cc:Work></rdf:RDF></metadata><path
     id="mainsymbolpath"
     style="opacity:1;fill:#000000;fill-opacity:1;stroke:none;stroke-width:0.936247"
     d="m 150.3729,132.46832 c -7.29059,0 -13.15625,5.14158 -13.15625,11.53223 v 52.89484 c 0,6.39063 5.86566,11.53222 13.15625,11.53222 h 80.875 c 7.29059,0 13.15625,-5.14159 13.15625,-11.53222 v -52.89484 c 0,-6.39065 -5.86566,-11.53222 -13.15625,-11.53222 h -80.875 z m 2.9375,14.46322 h 75 v 47.06025 h -75 z m -2.9375,-96.186889 c -7.29059,0 -13.15625,5.141592 -13.15625,11.532225 v 52.894834 c 0,6.39063 5.86566,11.53223 13.15625,11.53223 h 80.875 c 7.29059,0 13.15625,-5.1416 13.15625,-11.53223 V 62.276876 c 0,-6.390633 -5.86566,-11.532225 -13.15625,-11.532225 z m 2.9375,14.463218 h 75 v 47.060241 h -75 z" /><path
     style="fill:#000000;stroke-width:1.11878"
     d="m 29.612857,196.14357 c -3.771571,-0.54822 -9.959071,-1.65157 -13.75,-2.45193 l -6.8925978,-1.45516 v -11.15191 c 0,-13.00449 -1.242879,-12.26473 13.6156108,-8.10399 35.592236,9.9667 66.069812,5.17967 70.349005,-11.04952 3.94424,-14.95886 -10.14512,-22.33394 -46.041079,-24.10027 l -16.923537,-0.83274 v -8.99772 -8.99772 l 16.52922,-0.84799 c 22.823017,-1.17087 41.192165,-6.30635 38.93177,-10.88418 -0.335307,-0.67908 -0.04617,-1.07992 0.642523,-0.89076 2.246352,0.617 3.52168,-6.27305 1.863469,-10.06751 -5.736622,-13.127019 -36.673679,-16.395404 -68.279035,-7.213404 -3.746629,1.088473 -7.009129,1.979042 -7.25,1.979042 -1.994375,0 -0.233414,-21.068045 1.812053,-21.679308 25.793539,-7.70804 84.722694,-3.176387 100.100141,7.697702 18.40814,13.017227 13.94552,36.536928 -8.74514,46.090258 -5.105,2.14934 -5.105,2.14934 -1.35093,3.15098 23.31915,6.22188 33.45874,35.47047 18.1347,52.31123 -14.4581,15.88911 -53.337763,23.22307 -92.746173,17.4949 z"
     id="path1"
     sodipodi:nodetypes="sscsssscccssssssssssss" /></svg>
