<?xml version="1.0" encoding="UTF-8" standalone="no"?>
<!-- Created with Inkscape (http://www.inkscape.org/) by Toomai Glittershine for SmashWiki -->

<svg
   id="svg2"
   version="1.1"
   height="256"
   width="256"
   viewBox="0 0 256 256"
   sodipodi:docname="battlenet.svg"
   xml:space="preserve"
   inkscape:version="1.4.2 (f4327f4, 2025-05-13)"
   xmlns:inkscape="http://www.inkscape.org/namespaces/inkscape"
   xmlns:sodipodi="http://sodipodi.sourceforge.net/DTD/sodipodi-0.dtd"
   xmlns="http://www.w3.org/2000/svg"
   xmlns:svg="http://www.w3.org/2000/svg"
   xmlns:rdf="http://www.w3.org/1999/02/22-rdf-syntax-ns#"
   xmlns:cc="http://creativecommons.org/ns#"
   xmlns:dc="http://purl.org/dc/elements/1.1/"><defs
     id="defs1"><inkscape:path-effect
       effect="bspline"
       id="path-effect4"
       is_visible="true"
       lpeversion="1.3"
       weight="33.333333"
       steps="2"
       helper_size="0"
       apply_no_weight="true"
       apply_with_weight="true"
       only_selected="false"
       uniform="false" /><inkscape:path-effect
       effect="bspline"
       id="path-effect3"
       is_visible="true"
       lpeversion="1.3"
       weight="33.333333"
       steps="2"
       helper_size="0"
       apply_no_weight="true"
       apply_with_weight="true"
       only_selected="false"
       uniform="false" /><linearGradient
       id="swatch2"
       inkscape:swatch="solid"><stop
         style="stop-color:#000000;stop-opacity:0.50196096;"
         offset="0"
         id="stop2" /></linearGradient></defs><sodipodi:namedview
     id="namedview1"
     pagecolor="#505050"
     bordercolor="#ffffff"
     borderopacity="1"
     inkscape:showpageshadow="0"
     inkscape:pageopacity="0"
     inkscape:pagecheckerboard="1"
     inkscape:deskcolor="#505050"
     inkscape:zoom="2.2290437"
     inkscape:cx="83.443855"
     inkscape:cy="130.32495"
     inkscape:window-width="1920"
     inkscape:window-height="1009"
     inkscape:window-x="-8"
     inkscape:window-y="60"
     inkscape:window-maximized="1"
     inkscape:current-layer="layer1" /><metadata
     id="metadata7"><rdf:RDF><cc:Work
         rdf:about=""><dc:format>image/svg+xml</dc:format><dc:type
           rdf:resource="http://purl.org/dc/dcmitype/StillImage" /></cc:Work></rdf:RDF></metadata><g
     inkscape:groupmode="layer"
     id="layer1"
     inkscape:label="Layer 1"
     style="stroke:#000000;stroke-opacity:1"><path
       style="fill:#000000;fill-opacity:1;stroke:#000000;stroke-width:10.1115;stroke-linecap:round;stroke-linejoin:round;stroke-miterlimit:167.9;stroke-opacity:1;paint-order:stroke markers fill"
       d="m 154.18112,70.062191 c 0,0 -4.55404,-6.911151 -11.39065,-14.698885 C 124.18314,34.167283 88.667079,5.3027942 82.039205,84.041939 72.97615,191.71103 138.23015,225.06306 138.23015,225.06306 c 0,0 -59.51713,-42.91357 -44.22771,-141.021121 5.82546,-37.380232 14.08466,-39.6609 22.00968,-37.973813 22.69101,4.83049 30.01675,21.855101 30.01675,21.855101 z"
       id="path1"
       sodipodi:nodetypes="csscsscc" /><path
       style="fill:#000000;fill-opacity:1;stroke:#000000;stroke-width:10.1115;stroke-linecap:round;stroke-linejoin:round;stroke-miterlimit:167.9;stroke-opacity:1;paint-order:stroke markers fill"
       d="m 168.84942,170.42893 c 0,0 113.31597,-19.4564 18.62667,-71.501615 C 92.786781,46.882083 35.790245,92.945491 35.790245,92.945491 c 0,0 63.400665,-36.935331 146.823105,16.912179 31.78502,20.51658 30.51163,28.98973 25.74889,35.54478 -13.63674,18.76845 -31.53589,17.8199 -31.53589,17.8199 z"
       id="path1-2"
       sodipodi:nodetypes="cscsscc" /><path
       style="fill:#000000;fill-opacity:1;stroke:#000000;stroke-width:10.1115;stroke-linecap:round;stroke-linejoin:round;stroke-miterlimit:167.9;stroke-opacity:1;paint-order:stroke markers fill"
       d="m 69.087487,129.67855 c 0,0 -19.872383,30.15108 -19.296702,52.02453 0.475616,18.07142 16.874766,30.56315 61.280835,10.12731 98.15467,-45.17115 95.02001,-118.387385 95.02001,-118.387385 0,0 -8.01237,72.936035 -100.91527,107.977545 -35.397205,13.35127 -41.451716,7.28837 -43.889012,-0.43898 -6.978451,-22.12502 10.315332,-37.94925 10.315332,-37.94925 z"
       id="path1-2-1"
       sodipodi:nodetypes="csscsscc" /></g></svg>
