<?xml version="1.0" encoding="UTF-8" standalone="no"?>
<!-- Created with Inkscape (http://www.inkscape.org/) by Toomai Glittershine for SmashWiki -->

<svg
   id="svg2"
   version="1.1"
   height="256"
   width="256"
   viewBox="0 0 256 256"
   sodipodi:docname="dreamcast.svg"
   inkscape:version="1.4.2 (f4327f4, 2025-05-13)"
   xml:space="preserve"
   xmlns:inkscape="http://www.inkscape.org/namespaces/inkscape"
   xmlns:sodipodi="http://sodipodi.sourceforge.net/DTD/sodipodi-0.dtd"
   xmlns="http://www.w3.org/2000/svg"
   xmlns:svg="http://www.w3.org/2000/svg"
   xmlns:rdf="http://www.w3.org/1999/02/22-rdf-syntax-ns#"
   xmlns:cc="http://creativecommons.org/ns#"
   xmlns:dc="http://purl.org/dc/elements/1.1/"><defs
     id="defs1" /><sodipodi:namedview
     id="namedview1"
     pagecolor="#505050"
     bordercolor="#ffffff"
     borderopacity="1"
     inkscape:showpageshadow="0"
     inkscape:pageopacity="0"
     inkscape:pagecheckerboard="1"
     inkscape:deskcolor="#505050"
     inkscape:zoom="1.4142136"
     inkscape:cx="39.951532"
     inkscape:cy="50.558134"
     inkscape:window-width="1920"
     inkscape:window-height="1009"
     inkscape:window-x="-8"
     inkscape:window-y="60"
     inkscape:window-maximized="1"
     inkscape:current-layer="svg2" /><metadata
     id="metadata7"><rdf:RDF><cc:Work
         rdf:about=""><dc:format>image/svg+xml</dc:format><dc:type
           rdf:resource="http://purl.org/dc/dcmitype/StillImage" /></cc:Work></rdf:RDF></metadata><path
     style="fill:#000000"
     d="M 107.17731,235.13627 C 0.25958645,222.99445 -20.939994,86.187512 76.773036,38.928823 132.22576,12.109238 198.34098,26.995125 228.87242,73.174099 c 19.10815,28.901201 27.46598,61.115561 16.81901,64.827111 -6.16884,2.15047 -12.14665,-2.05189 -13.52166,-9.50564 -1.17916,-6.39212 -8.62424,-28.595737 -10.83769,-32.321471 C 197.8597,56.664753 175.69382,43.674517 129.62533,42.429694 56.936746,40.465565 10.540036,112.92692 42.741346,178.12319 c 19.16396,38.80025 72.054874,51.99816 117.380964,29.29016 31.06314,-15.56236 39.40019,-46.79593 23.58894,-88.37256 -16.55684,-43.537233 -78.05189,-51.820992 -103.468584,-13.93785 -31.06822,46.30664 13.68542,96.4253 60.735174,68.01604 27.28645,-16.47592 2.34536,-66.96351 -26.72727,-54.10331 -16.427534,7.26669 -11.16408,26.25342 7.5288,27.15843 19.432,0.94079 17.59262,15.14854 -1.95562,15.10559 -19.27903,-0.0424 -30.644534,-10.26884 -30.680314,-27.60559 -0.093,-45.071889 68.429454,-42.382225 79.053424,3.10303 14.59229,62.47512 -83.183074,86.75802 -108.300884,26.89697 -19.88242,-47.38401 17.41674,-101.632223 68.202564,-99.194379 51.21539,2.458463 77.92663,32.307844 81.15944,90.694379 2.6627,48.0901 -46.13611,86.31536 -102.08067,79.96217 z"
     id="path1"
     sodipodi:nodetypes="ssssscssscssssccsssss" /></svg>
