<?xml version="1.0" encoding="UTF-8" standalone="no"?>
<!-- Created with Inkscape (http://www.inkscape.org/) by Toomai Glittershine for SmashWiki -->

<svg
   id="svg2"
   version="1.1"
   height="256"
   width="256"
   viewBox="0 0 256 256"
   sodipodi:docname="epic.svg"
   xml:space="preserve"
   inkscape:version="1.4.2 (f4327f4, 2025-05-13)"
   xmlns:inkscape="http://www.inkscape.org/namespaces/inkscape"
   xmlns:sodipodi="http://sodipodi.sourceforge.net/DTD/sodipodi-0.dtd"
   xmlns="http://www.w3.org/2000/svg"
   xmlns:svg="http://www.w3.org/2000/svg"
   xmlns:rdf="http://www.w3.org/1999/02/22-rdf-syntax-ns#"
   xmlns:cc="http://creativecommons.org/ns#"
   xmlns:dc="http://purl.org/dc/elements/1.1/"><defs
     id="defs1"><inkscape:path-effect
       effect="bspline"
       id="path-effect4"
       is_visible="true"
       lpeversion="1.3"
       weight="33.333333"
       steps="2"
       helper_size="0"
       apply_no_weight="true"
       apply_with_weight="true"
       only_selected="false"
       uniform="false" /><inkscape:path-effect
       effect="bspline"
       id="path-effect3"
       is_visible="true"
       lpeversion="1.3"
       weight="33.333333"
       steps="2"
       helper_size="0"
       apply_no_weight="true"
       apply_with_weight="true"
       only_selected="false"
       uniform="false" /><linearGradient
       id="swatch2"
       inkscape:swatch="solid"><stop
         style="stop-color:#000000;stop-opacity:0.50196096;"
         offset="0"
         id="stop2" /></linearGradient></defs><sodipodi:namedview
     id="namedview1"
     pagecolor="#505050"
     bordercolor="#ffffff"
     borderopacity="1"
     inkscape:showpageshadow="0"
     inkscape:pageopacity="0"
     inkscape:pagecheckerboard="1"
     inkscape:deskcolor="#505050"
     inkscape:zoom="3.1523438"
     inkscape:cx="78.671622"
     inkscape:cy="124.82776"
     inkscape:window-width="1920"
     inkscape:window-height="1009"
     inkscape:window-x="-8"
     inkscape:window-y="60"
     inkscape:window-maximized="1"
     inkscape:current-layer="svg2" /><metadata
     id="metadata7"><rdf:RDF><cc:Work
         rdf:about=""><dc:format>image/svg+xml</dc:format><dc:type
           rdf:resource="http://purl.org/dc/dcmitype/StillImage" /></cc:Work></rdf:RDF></metadata><path
     id="path35"
     style="baseline-shift:baseline;display:inline;overflow:visible;opacity:1;vector-effect:none;fill:#000000;fill-opacity:1;stroke-width:0.948041;stroke-linecap:round;stroke-linejoin:round;stroke-miterlimit:57.5;paint-order:stroke markers fill;enable-background:accumulate;stop-color:#000000;stop-opacity:1"
     d="m 193.45893,170.26871 -120.154582,0.9408 a 1.3987783,1.5162662 0 0 0 -0.688265,2.83007 l 60.200887,37.65071 a 1.3987783,1.5162662 0 0 0 1.41389,-0.009 l 59.9519,-38.59343 a 1.3987783,1.5162662 0 0 0 -0.72383,-2.81849 z m -5.14865,3.07299 -54.80326,35.27946 -55.032686,-34.41965 z" /><path
     style="fill:none;fill-opacity:0.501961;stroke:#000000;stroke-width:11.7128;stroke-linecap:round;stroke-linejoin:round;stroke-miterlimit:167.9;stroke-dasharray:none;stroke-dashoffset:0;stroke-opacity:1;paint-order:stroke markers fill"
     d="M 64.456735,45.531992 V 183.04785 l 68.959285,42.56443 68.60925,-41.9096 V 43.785759 H 64.489552 Z"
     id="path1"
     sodipodi:nodetypes="ccccccc" /><path
     style="fill:#000000;fill-opacity:1;stroke:#000000;stroke-width:3.96943;stroke-linecap:round;stroke-linejoin:round;stroke-miterlimit:167.9;stroke-opacity:1;paint-order:stroke markers fill"
     d="M 101.98761,199.1169 70.741015,179.82597 70.66095,114.73578 70.580885,49.6456 h 62.653315 62.6533 l -0.0801,65.41285 -0.0801,65.41286 -31.03497,18.9688 c -17.06923,10.43285 -31.1302,18.96856 -31.24659,18.96826 -0.11639,-3e-4 -14.27259,-8.68146 -31.45821,-19.29147 z m 33.48436,11.95644 c 7.04699,-4.4516 58.47504,-37.59977 58.90721,-37.96889 0.68184,-0.58237 0.72494,-2.06057 0.0758,-2.59931 -0.70366,-0.58399 -121.432112,0.37719 -122.149406,0.97249 -0.294316,0.24426 -0.448915,0.79071 -0.391157,1.38259 0.0908,0.93046 1.596118,1.91959 30.549033,20.07338 16.74945,10.50209 30.6754,19.10283 30.94657,19.11277 0.27117,0.01 1.19905,-0.42793 2.06196,-0.97303 z"
     id="path2" /></svg>
