<?xml version="1.0" encoding="UTF-8" standalone="no"?>
<!-- Created with Inkscape (http://www.inkscape.org/) by Toomai Glittershine for SmashWiki -->

<svg
   id="svg2"
   version="1.1"
   height="256"
   width="256"
   viewBox="0 0 256 256"
   sodipodi:docname="gamecube.svg"
   inkscape:version="1.4.2 (f4327f4, 2025-05-13)"
   xml:space="preserve"
   xmlns:inkscape="http://www.inkscape.org/namespaces/inkscape"
   xmlns:sodipodi="http://sodipodi.sourceforge.net/DTD/sodipodi-0.dtd"
   xmlns="http://www.w3.org/2000/svg"
   xmlns:svg="http://www.w3.org/2000/svg"
   xmlns:rdf="http://www.w3.org/1999/02/22-rdf-syntax-ns#"
   xmlns:cc="http://creativecommons.org/ns#"
   xmlns:dc="http://purl.org/dc/elements/1.1/"><defs
     id="defs1" /><sodipodi:namedview
     id="namedview1"
     pagecolor="#505050"
     bordercolor="#ffffff"
     borderopacity="1"
     inkscape:showpageshadow="0"
     inkscape:pageopacity="0"
     inkscape:pagecheckerboard="1"
     inkscape:deskcolor="#505050"
     inkscape:zoom="1"
     inkscape:cx="-48.5"
     inkscape:cy="134.5"
     inkscape:window-width="1920"
     inkscape:window-height="1009"
     inkscape:window-x="-8"
     inkscape:window-y="60"
     inkscape:window-maximized="1"
     inkscape:current-layer="svg2" /><metadata
     id="metadata7"><rdf:RDF><cc:Work
         rdf:about=""><dc:format>image/svg+xml</dc:format><dc:type
           rdf:resource="http://purl.org/dc/dcmitype/StillImage" /></cc:Work></rdf:RDF></metadata><path
     style="fill:#000000;stroke-width:0.599277"
     d="m 121.75962,241.33675 -4.49458,-2.71536 -2.39711,-1.35154 -2.39709,-1.35153 -8.09024,-4.68919 -8.090246,-4.68918 -1.49819,-0.80672 -1.49819,-0.80672 -32.960233,-19.00996 -32.960233,-19.00995 -0.152803,-57.61025 -0.152804,-57.610262 4.048104,-2.388422 4.048104,-2.388422 7.7906,-4.494731 7.790601,-4.494732 9.88807,-5.68996 9.888069,-5.689962 11.086623,-6.452238 11.086622,-6.452239 1.79783,-1.046086 1.79783,-1.046088 15.187436,-8.763923 15.18745,-8.763925 h 0.48184 0.48185 l 14.89383,8.59735 14.89384,8.597351 5.99278,3.472816 5.99276,3.472815 7.19133,4.202889 7.19133,4.202889 7.79059,4.504761 7.7906,4.50476 2.62957,1.492859 2.62958,1.492859 -1.13138,0.84929 -1.13138,0.849292 -2.92981,1.60021 -2.9298,1.600208 -0.97972,0.599277 -0.97971,0.599277 -7.1771,4.125708 -7.17711,4.125707 -4.90867,2.889611 -4.90869,2.88961 -4.08046,-2.269842 -4.08048,-2.269843 -2.39712,-1.360661 -2.39711,-1.36066 -3.29602,-1.972531 -3.29602,-1.972531 -11.60106,-6.655958 -11.60105,-6.655957 h -0.48465 -0.48467 l -15.18139,8.760375 -15.181386,8.760375 -2.69674,1.512015 -2.69675,1.512014 -11.985537,6.871979 -11.985539,6.87198 -2.251755,1.444675 -2.251752,1.444674 0.154283,37.794677 0.154284,37.79467 19.176864,11.1291 19.176858,11.1291 5.69313,3.26978 5.69314,3.26978 1.79782,1.05371 1.79783,1.05371 5.3935,3.14555 5.39349,3.14554 2.69675,-1.45132 2.69674,-1.45131 18.27794,-10.55374 18.27796,-10.55376 11.38626,-6.57423 11.38626,-6.57425 0.15911,-17.20294 0.15908,-17.20294 -0.50158,0.20285 -0.50159,0.20286 -7.88075,4.49109 -7.88076,4.49109 -0.16663,7.46702 -0.16663,7.46702 -6.29241,3.6813 -6.2924,3.6813 -17.37905,10.05509 -17.37903,10.05509 -2.99638,-1.64375 -2.99638,-1.64376 -14.08301,-8.11459 -14.083006,-8.11459 -7.041505,-4.12332 -7.041504,-4.12332 v -27.54386 -27.54386 h 0.508995 0.508994 l 22.113706,-12.769557 22.11371,-12.769564 1.27634,-0.813332 1.27632,-0.813331 2.61897,1.529071 2.61897,1.529072 2.09746,1.186836 2.09748,1.186835 9.58843,5.574362 9.58843,5.574362 3.59567,2.070495 3.59566,2.070495 2.69675,1.519534 2.69674,1.519535 2.09748,1.29692 2.09747,1.296917 1.13317,0.41927 1.13317,0.41927 1.26393,-0.82199 1.26394,-0.821987 24.39835,-14.173529 24.39835,-14.173526 h 0.62446 0.62445 l -0.15281,57.612992 -0.15282,57.61299 -12.58481,7.31304 -12.58482,7.31303 -36.94339,21.36985 -36.9434,21.36986 -0.81106,-0.0428 -0.81104,-0.0427 z"
     id="path7" /></svg>
