<?xml version="1.0" encoding="UTF-8" standalone="no"?>
<!-- Created with Inkscape (http://www.inkscape.org/) by Toomai Glittershine for SmashWiki -->

<svg
   id="svg2"
   version="1.1"
   height="256"
   width="256"
   viewBox="0 0 256 256"
   sodipodi:docname="gameboy.svg"
   inkscape:version="1.4.2 (f4327f4, 2025-05-13)"
   xml:space="preserve"
   xmlns:inkscape="http://www.inkscape.org/namespaces/inkscape"
   xmlns:sodipodi="http://sodipodi.sourceforge.net/DTD/sodipodi-0.dtd"
   xmlns="http://www.w3.org/2000/svg"
   xmlns:svg="http://www.w3.org/2000/svg"
   xmlns:rdf="http://www.w3.org/1999/02/22-rdf-syntax-ns#"
   xmlns:cc="http://creativecommons.org/ns#"
   xmlns:dc="http://purl.org/dc/elements/1.1/"><defs
     id="defs1" /><sodipodi:namedview
     id="namedview1"
     pagecolor="#505050"
     bordercolor="#ffffff"
     borderopacity="1"
     inkscape:showpageshadow="0"
     inkscape:pageopacity="0"
     inkscape:pagecheckerboard="1"
     inkscape:deskcolor="#505050"
     inkscape:zoom="1"
     inkscape:cx="51"
     inkscape:cy="55.5"
     inkscape:window-width="1920"
     inkscape:window-height="1009"
     inkscape:window-x="-8"
     inkscape:window-y="60"
     inkscape:window-maximized="1"
     inkscape:current-layer="svg2" /><metadata
     id="metadata7"><rdf:RDF><cc:Work
         rdf:about=""><dc:format>image/svg+xml</dc:format><dc:type
           rdf:resource="http://purl.org/dc/dcmitype/StillImage" /></cc:Work></rdf:RDF></metadata><path
     style="fill:#000000;stroke-width:0.750525"
     d="m 62.752477,234.01079 c -0.619358,-0.61935 -0.900624,-4.36972 -0.900624,-12.00842 V 210.8946 H 50.744065 c -7.638677,0 -11.389054,-0.28129 -12.008403,-0.90065 -1.25281,-1.25279 -1.25281,-20.96275 0,-22.21556 0.619349,-0.61935 4.369726,-0.90062 12.008403,-0.90062 h 11.107788 v -11.10779 c 0,-7.63868 0.281266,-11.38905 0.900624,-12.0084 1.412492,-1.41248 21.14905,-1.24078 22.340119,0.19436 0.600555,0.72363 0.959656,4.7326 1.058813,11.82078 l 0.15004,10.72578 11.442828,0.20733 11.442803,0.20733 0.72447,1.90547 c 0.93155,2.45013 0.92484,19.09085 -0.008,20.5709 -0.56163,0.89082 -3.08519,1.20412 -12.091095,1.50107 l -11.381326,0.37525 -0.324143,10.8576 c -0.181279,6.07222 -0.676466,11.28211 -1.123513,11.82079 -1.090381,1.31384 -20.923624,1.36964 -22.23071,0.0626 z"
     id="path2"
     sodipodi:nodetypes="sscsssscsssscccssscssss" /><path
     d="m 35.41042,140.19234 c -3.146394,-3.14638 -3.259892,-5.43314 -3.259892,-65.686757 0,-46.380999 0.502741,-62.929633 1.955933,-64.382831 1.473227,-1.473222 23.784443,-1.955933 90.404589,-1.955933 85.7784,0 88.49959,0.09519 90.13595,3.152747 2.36237,4.41411 2.25195,99.107634 -0.12665,108.553614 -1.1224,4.45746 -4.75251,6.69508 -8.91952,10.76623 -4.04351,3.95049 -8.57192,9.78229 -13.13766,11.05006 -4.03552,1.12055 -32.6651,1.74784 -80.03794,1.75368 -71.588072,0.008 -73.850779,-0.0867 -77.014894,-3.25081 z M 183.73539,74.994559 V 22.836327 H 124.24242 64.749424 V 74.994559 127.1528 h 59.492996 59.49297 z"
     style="fill:#000000;stroke-width:0.715521"
     id="path1"
     sodipodi:nodetypes="cssssccccccccccccccc" /><path
     d="M 63.339403,83.422393 C 78.25207,62.076275 94.225298,39.255307 98.835479,32.709189 L 107.21759,20.8071 h 13.29273 13.29274 l -5.09458,6.727262 c -0.60128,0.793958 43.58224,-63.39143 -35.629937,50.713218 l -34.411838,41.217 -9.282396,2.76895 H 36.225394 Z M 44.304813,73.056656 c 0,-6.395016 2.342096,-11.354179 11.544316,-24.443798 6.349328,-9.03165 13.102481,-18.976803 15.006945,-22.100381 2.648653,-4.344127 5.072879,-5.682293 10.31212,-5.692314 7.884647,-0.01458 8.549113,-1.719092 -8.872732,22.754328 -6.889355,9.677916 -15.229155,21.595714 -18.532806,26.48401 -8.090606,11.971404 -9.457843,12.404833 -9.457843,2.998155 z"
     style="fill:#000000;stroke-width:2.6595"
     id="path1-7"
     sodipodi:nodetypes="ssccccscccsssscsss" /><path
     d="m 139.83464,227.40997 c -2.84424,-1.48584 -5.52222,-3.75463 -7.12707,-6.03806 -2.36108,-3.35941 -2.57083,-4.2368 -2.57083,-10.75382 0,-6.51706 0.20975,-7.39444 2.57083,-10.75383 1.61403,-2.29647 4.30963,-4.57422 7.2428,-6.12003 3.99495,-2.10541 5.36,-2.40227 9.42016,-2.04871 11.22149,0.97725 18.10881,8.38971 18.04221,19.41794 -0.086,14.25989 -14.81546,22.96379 -27.5781,16.29651 z m 45.6406,-24.78974 c -7.32546,-3.32734 -12.36277,-12.65671 -11.04505,-20.45618 1.23162,-7.28988 8.08759,-14.28082 15.52417,-15.82976 7.62316,-1.58783 16.96469,2.92747 20.54167,9.92896 5.17021,10.12001 0.66495,22.42087 -9.82122,26.81512 -3.86315,1.61885 -11.10757,1.4005 -15.19957,-0.45814 z"
     style="fill:#000000;stroke-width:0.852091"
     id="path1-1" /></svg>
