<?xml version="1.0" encoding="UTF-8" standalone="no"?>
<!-- Created with Inkscape (http://www.inkscape.org/) by Toomai Glittershine for SmashWiki -->

<svg
   id="svg2"
   version="1.1"
   height="256"
   width="256"
   viewBox="0 0 256 256"
   sodipodi:docname="gameboyadvance.svg"
   inkscape:version="1.4.2 (f4327f4, 2025-05-13)"
   xml:space="preserve"
   xmlns:inkscape="http://www.inkscape.org/namespaces/inkscape"
   xmlns:sodipodi="http://sodipodi.sourceforge.net/DTD/sodipodi-0.dtd"
   xmlns="http://www.w3.org/2000/svg"
   xmlns:svg="http://www.w3.org/2000/svg"
   xmlns:rdf="http://www.w3.org/1999/02/22-rdf-syntax-ns#"
   xmlns:cc="http://creativecommons.org/ns#"
   xmlns:dc="http://purl.org/dc/elements/1.1/"><defs
     id="defs1" /><sodipodi:namedview
     id="namedview1"
     pagecolor="#505050"
     bordercolor="#ffffff"
     borderopacity="1"
     inkscape:showpageshadow="0"
     inkscape:pageopacity="0"
     inkscape:pagecheckerboard="1"
     inkscape:deskcolor="#505050"
     inkscape:zoom="0.7071068"
     inkscape:cx="328.80464"
     inkscape:cy="331.63307"
     inkscape:window-width="1920"
     inkscape:window-height="1009"
     inkscape:window-x="-8"
     inkscape:window-y="60"
     inkscape:window-maximized="1"
     inkscape:current-layer="svg2" /><metadata
     id="metadata7"><rdf:RDF><cc:Work
         rdf:about=""><dc:format>image/svg+xml</dc:format><dc:type
           rdf:resource="http://purl.org/dc/dcmitype/StillImage" /></cc:Work></rdf:RDF></metadata><path
     style="fill:#000000;stroke-width:0.462259"
     d="m 60.475461,195.99578 c -5.720453,-2.26746 -12.37698,-4.90877 -14.792282,-5.86957 -5.075463,-2.019 -12.209253,-4.82739 -21.726164,-8.55303 -3.686514,-1.44317 -6.970853,-2.84411 -7.298539,-3.11319 -0.327682,-0.26908 -3.168017,-4.26807 -6.311862,-8.88664 l -5.7160797,-8.39741 1.109578,-9.90587 c 2.391972,-21.35463 4.8040797,-43.90858 4.8081337,-44.95754 0.0037,-0.93378 0.503456,-1.45695 7.1428,-7.476146 2.523929,-2.28818 5.797586,-5.282352 7.274798,-6.653718 l 2.685835,-2.493394 11.943912,0.03818 11.943913,0.03818 7.934917,7.730212 c 4.364209,4.251616 7.934922,7.906926 7.934922,8.122916 0,0.21599 0.403612,1.27451 0.896912,2.35227 1.280396,2.79739 3.263417,7.8286 3.263417,8.27975 0,0.21041 -3.842965,0.38256 -8.539917,0.38256 h -8.539921 l -3.357802,-2.88912 c -1.846789,-1.58901 -5.024384,-4.50018 -7.061313,-6.46926 -2.036935,-1.96908 -3.807524,-3.57821 -3.934646,-3.57583 -0.265979,0.005 -12.432621,9.44709 -13.26294,10.29293 -0.30295,0.30862 -0.979203,4.40941 -1.502785,9.1129 -0.523582,4.70349 -1.172695,10.52795 -1.442483,12.94325 -0.269783,2.4153 -0.672623,5.74356 -0.895196,7.39614 -0.222578,1.65257 -0.532828,4.87683 -0.68945,7.16501 l -0.28477,4.16033 2.451627,2.63435 c 1.34839,1.44889 3.896411,4.20511 5.662263,6.12493 l 3.210646,3.49058 h 5.430538 5.430538 l 2.453032,-2.65489 c 1.349162,-1.46018 3.992067,-4.26311 5.873119,-6.22873 l 3.420095,-3.57385 -0.563285,-4.28765 c -0.309811,-2.35821 -0.656717,-4.75569 -0.770914,-5.32774 -0.206079,-1.03234 -0.269469,-1.04008 -8.519476,-1.04008 h -8.311853 v -7.62726 -7.62727 h 17.565835 17.565834 v 16.01123 l -0.04419,17.77901 -2.860455,1.5203 c -2.13076,1.13248 -5.265996,6.05736 -8.152091,9.44206 -5.810593,6.81444 -5.667279,6.33165 -2.884236,9.71591 l 1.266317,1.53988 -9.984596,-3.62004 c -2.417425,-0.87647 7.726863,-5.90823 10.164793,-8.70489 4.268738,-4.89689 3.911764,-9.15478 5.007359,-11.09421 1.22364,-2.16611 1.989023,-0.74457 4.148539,0.23515 1.838704,0.83417 16.115746,-0.48557 24.949165,-0.47644 l 9.822997,0.0102 v 4.90046 4.90046 l -5.200409,5.61129 c -18.899599,20.39284 -18.818976,20.31444 -22.303987,21.69071 -5.874863,2.32006 -4.897019,2.44623 -16.410189,-2.11734 z m 122.729719,3.80774 c -0.50849,-0.20094 -2.3711,-0.9226 -4.13914,-1.60369 -2.72117,-1.04825 -3.67912,-1.74264 -6.2405,-4.52358 -1.66423,-1.80688 -7.13419,-7.69211 -12.15548,-13.0783 l -9.12961,-9.79307 v -4.89109 -4.89109 l 10.05413,0.10931 c 8.82419,0.0959 10.23449,0.0107 11.52848,-0.69703 l 14.97434,-3.30635 0.14356,11.16475 c 0.13241,10.2974 -5.65292,10.84605 -1.91342,12.71775 l -4.94376,1.27945 14.08508,-5.32036 c 7.74678,-2.92621 15.12515,-5.71789 16.39636,-6.20375 1.27121,-0.48585 6.1596,-2.32171 10.86308,-4.07968 l 8.55179,-3.19631 1.79335,-2.5893 1.79336,-2.5893 -1.21845,-7.31819 c -0.67015,-4.02501 -1.21714,-8.08599 -1.21553,-9.02439 0.001,-0.93841 -0.21172,-1.83884 -0.47405,-2.00097 -0.44241,-0.27342 -23.28249,7.22995 -27.5353,9.04584 l -1.89465,0.80899 -0.81393,6.40247 c -0.44765,3.52136 -1.08488,29.48594 -1.41605,30.0149 -0.33117,0.52896 -1.50451,-6.10659 -2.60741,-5.70595 -2.63341,0.95661 -12.90433,10.34994 -13.79286,10.71221 -0.6131,0.24997 -0.68655,-24.64456 -0.63427,-56.14584 l 0.0591,-35.626886 3.40698,-3.43908 3.40696,-3.439089 h 24.09722 24.09722 l 2.97862,3.351379 c 1.63825,1.84325 3.11985,3.59152 3.29247,3.88504 0.40467,0.688136 1.019,6.236146 4.70117,42.456396 0.62031,6.10182 1.33442,12.86236 1.58691,15.02342 l 0.45908,3.9292 -5.31601,7.8584 c -2.9238,4.32212 -5.58717,8.21812 -5.9186,8.65777 -0.33143,0.43966 -2.66298,1.62177 -5.18123,2.62691 -10.79748,4.30975 -24.70035,9.74809 -24.92057,9.74809 -0.13126,0 -1.12045,0.41181 -2.19821,0.91513 -1.07776,0.50332 -3.10365,1.31944 -4.50199,1.81361 -1.39833,0.49417 -5.24663,1.97045 -8.55178,3.28063 -9.19549,3.64513 -10.52906,4.06767 -11.55647,3.66165 z m 32.66424,-70.70257 c 13.44733,-4.62633 12.98599,-4.42906 12.68005,-5.4219 -0.13647,-0.44286 -0.5817,-3.40541 -0.9894,-6.58344 -0.40769,-3.17803 -0.89073,-6.50629 -1.07342,-7.39614 l -0.33216,-1.61791 -9.29128,-0.12498 -9.29128,-0.12498 -0.52545,4.05418 c -1.18819,9.16772 -1.52873,11.64533 -2.15349,15.66791 -0.77225,4.97226 -0.78496,5.25872 -0.23334,5.25872 0.23193,0 5.27633,-1.67016 11.20977,-3.71146 z M 112.71071,168.63747 V 152.68954 H 96.993908 81.277109 V 137.66613 122.64271 H 96.993908 112.71071 V 106.68847 90.734226 l 15.13897,0.121882 15.13898,0.121881 0.12163,15.832361 0.12164,15.83236 h 15.71073 15.71073 v 15.02342 15.02341 h -15.7168 -15.7168 v 15.94793 15.94793 H 127.96525 112.71071 Z M 79.892103,114.20676 C 78.806164,109.90721 76.200116,103.73019 74.087341,100.44794 69.242832,92.921872 59.712845,85.106803 52.363961,82.633677 l -2.900341,-0.976055 1.692283,-0.593226 c 3.112079,-1.09094 8.396233,-4.241632 13.354014,-7.962366 5.834635,-4.378798 8.057388,-5.562522 12.375733,-6.59066 2.934914,-0.698764 7.835259,-0.757614 52.6975,-0.632879 l 49.4617,0.137522 3.29267,1.348164 c 1.86056,0.761794 5.2785,2.829524 7.8584,4.754055 7.79565,5.815317 14.60974,9.516027 20.74479,11.266435 2.17679,0.621067 1.55813,0.672889 -10.63196,0.890569 -12.56656,0.224403 -13.01051,0.264103 -15.25454,1.364134 -3.00529,1.473203 -7.83697,6.294233 -9.14227,9.122112 -0.95218,2.062872 -1.02742,2.896112 -1.02742,11.378528 0,8.93962 -0.0215,9.14602 -0.92452,8.86728 -3.10573,-0.95871 -5.06256,-1.12653 -13.25087,-1.13647 l -9.09053,-0.011 -0.15464,-10.05413 c -0.14982,-9.740604 -0.19248,-10.133397 -1.36799,-12.596542 -1.46191,-3.06325 -4.2042,-5.887711 -7.20486,-7.420771 -2.15569,-1.101357 -2.52878,-1.134635 -14.2271,-1.269096 l -12.01336,-0.138077 -2.87025,1.219869 c -3.33409,1.41701 -6.59932,4.609372 -8.15183,7.969919 -0.91893,1.989094 -1.02035,3.060663 -1.15495,12.202708 l -0.14757,10.02213 -10.022128,0.14756 c -9.355133,0.13774 -10.151688,0.2168 -11.968842,1.18791 l -1.94671,1.04035 z M 11.728915,87.230938 c 1.25752,-8.016091 6.609788,-13.751946 14.539394,-15.581413 3.035779,-0.700392 9.43596,-1.715646 16.641317,-2.639794 2.16106,-0.277175 5.905357,-0.806859 8.320659,-1.177077 2.415302,-0.370214 6.042106,-0.842915 8.05957,-1.050437 l 3.668112,-0.377319 -2.160561,1.95608 c -2.498638,2.262166 -7.389018,5.561242 -10.722768,7.233639 -4.862145,2.439127 -13.36099,4.954402 -19.877129,5.882733 -9.370439,1.334976 -12.494107,2.599972 -16.628008,6.733875 l -2.365448,2.36545 z m 231.338775,1.996707 c -2.50649,-3.684379 -7.46694,-6.425503 -12.71212,-7.024655 -6.93301,-0.791946 -16.2007,-3.08358 -21.2639,-5.257949 -5.59527,-2.402863 -12.70978,-6.930077 -15.12954,-9.627459 -0.88543,-0.98702 -1.05857,-0.998812 14.20502,0.967618 21.54626,2.775841 25.16072,3.637432 29.6751,7.073785 3.52314,2.681808 6.92244,9.952819 6.53443,13.976971 l -0.15334,1.590418 z"
     id="path4"
     sodipodi:nodetypes="ssssscscsscccssssscsssssssscsscccsscssscccccccssscssssscccssssssscccsscsscssscccscsscssssscccccsssscsssssssssscscccssssccsccccccccccccccccccccccssscsssscssssssscscsssscssscsscsssssscsssscsssssssscscs" /></svg>
