<?xml version="1.0" encoding="UTF-8" standalone="no"?>
<!-- Created with Inkscape (http://www.inkscape.org/) by Toomai Glittershine for SmashWiki -->

<svg
   id="svg2"
   version="1.1"
   height="256"
   width="256"
   viewBox="0 0 256 256"
   sodipodi:docname="genesis.svg"
   inkscape:version="1.4.2 (f4327f4, 2025-05-13)"
   xml:space="preserve"
   xmlns:inkscape="http://www.inkscape.org/namespaces/inkscape"
   xmlns:sodipodi="http://sodipodi.sourceforge.net/DTD/sodipodi-0.dtd"
   xmlns="http://www.w3.org/2000/svg"
   xmlns:svg="http://www.w3.org/2000/svg"
   xmlns:rdf="http://www.w3.org/1999/02/22-rdf-syntax-ns#"
   xmlns:cc="http://creativecommons.org/ns#"
   xmlns:dc="http://purl.org/dc/elements/1.1/"><defs
     id="defs1"><inkscape:path-effect
       effect="fillet_chamfer"
       id="path-effect1"
       is_visible="true"
       lpeversion="1"
       nodesatellites_param="F,0,0,1,0,0,0,1 @ F,0,0,1,0,0,0,1 @ F,0,0,1,0,0,0,1 @ F,0,0,1,0,0,0,1 @ F,0,0,1,0,0,0,1 @ F,0,0,1,0,0,0,1 @ F,0,0,1,0,0,0,1 @ F,0,0,1,0,0,0,1 @ F,0,0,1,0,0,0,1 @ F,0,0,1,0,0,0,1 @ F,0,0,1,0,0,0,1 @ F,0,0,1,0,0,0,1 @ F,0,0,1,0,0,0,1 @ F,0,0,1,0,0,0,1 @ F,0,0,1,0,0,0,1 @ F,0,0,1,0,0,0,1 @ F,0,0,1,0,0,0,1 @ F,0,0,1,0,0,0,1 @ F,0,0,1,0,0,0,1 @ F,0,0,1,0,0,0,1 @ F,0,0,1,0,0,0,1 @ F,0,0,1,0,0,0,1 @ F,0,0,1,0,0,0,1 @ F,0,0,1,0,0,0,1 @ F,0,0,1,0,0,0,1 @ F,0,0,1,0,0,0,1 @ F,0,0,1,0,0,0,1 @ F,0,0,1,0,0,0,1 @ F,0,0,1,0,0,0,1 @ F,0,0,1,0,0,0,1 @ F,0,0,1,0,0,0,1 @ F,0,0,1,0,0,0,1"
       radius="0"
       unit="px"
       method="auto"
       mode="F"
       chamfer_steps="1"
       flexible="false"
       use_knot_distance="true"
       apply_no_radius="true"
       apply_with_radius="true"
       only_selected="false"
       hide_knots="false" /></defs><sodipodi:namedview
     id="namedview1"
     pagecolor="#505050"
     bordercolor="#ffffff"
     borderopacity="1"
     inkscape:showpageshadow="0"
     inkscape:pageopacity="0"
     inkscape:pagecheckerboard="1"
     inkscape:deskcolor="#505050"
     inkscape:zoom="1"
     inkscape:cx="-9.9999997"
     inkscape:cy="30.499999"
     inkscape:window-width="1920"
     inkscape:window-height="1009"
     inkscape:window-x="-8"
     inkscape:window-y="60"
     inkscape:window-maximized="1"
     inkscape:current-layer="svg2" /><metadata
     id="metadata7"><rdf:RDF><cc:Work
         rdf:about=""><dc:format>image/svg+xml</dc:format><dc:type
           rdf:resource="http://purl.org/dc/dcmitype/StillImage" /></cc:Work></rdf:RDF></metadata><path
     id="path2"
     style="display:inline;fill:#000000;stroke-width:4.99484"
     d="M 60.900993,57.808593 39.121614,74.259835 17.34061,90.7094 17.149301,141.74906 c -0.105717,28.07172 1.286396,52.55887 3.093585,54.41487 1.807239,1.85601 30.999791,3.37354 64.873763,3.37354 h 61.588871 l 22.80948,-12.38083 25.32424,18.27486 c 0.95164,-1.06622 7.87371,7.28496 15.0608,3.70602 10.07974,-5.01936 24.57554,-25.98244 25.55643,-27.64487 7.12899,-12.08227 6.17568,-28.95555 7.84842,-42.76785 1.85669,-15.33112 -47.37211,-27.0467 -48.50161,-28.20069 -1.12955,-1.15399 -12.86278,-2.09734 -26.07313,-2.09734 h -18.57623 l -0.121,30.37023 -1.77589,15.64107 1.77589,14.72916 H 108.13869 66.244459 v -40.4942 -40.494204 h 47.020241 47.01859 l 19.18449,-10.051765 c 10.55138,-5.528227 20.57547,-12.361398 22.27481,-15.185116 l 3.08868,-5.133352 H 132.86613 Z M 191.17174,122.66985 h 0.002 0.002 c 8.1e-4,-9e-5 0.003,0 0.003,0 h 16.06637 c 8.4e-4,0 0.004,-9e-5 0.005,0 7.9e-4,1.6e-4 0.004,0.002 0.005,0.002 l 0.002,0.002 h 0.002 0.002 v 0.002 h 0.002 l 0.002,0.002 0.002,0.002 v 0.002 c 4.4e-4,6.7e-4 0.003,0.004 0.003,0.005 v 0.002 c 2.3e-4,7.7e-4 0.002,0.004 0.002,0.005 9e-5,8.3e-4 0,0.002 0,0.003 v 25.40136 h 24.35791 0.002 0.002 v 0.002 h 0.002 c 7.9e-4,1.6e-4 0.004,0.002 0.005,0.002 h 0.002 c 6.8e-4,4.3e-4 0.004,0.003 0.005,0.003 l 0.002,0.002 0.002,0.002 v 0.002 l 0.002,0.002 0.002,0.002 c 3e-4,7.4e-4 0.002,0.004 0.002,0.005 v 0.002 c -3e-5,8.7e-4 -4e-5,0.003 0,0.003 v 16.50162 0.002 0.002 0.002 l -0.002,0.002 v 0.002 c -3.1e-4,7.4e-4 -0.003,0.004 -0.003,0.005 v 0.002 l -0.002,0.002 -0.002,0.002 -0.002,0.002 h -0.002 v 0.002 h -0.002 -0.002 l -0.002,0.002 h -0.002 -0.002 -0.002 c -8.1e-4,9e-5 -0.003,0 -0.003,0 h -24.35864 v 24.19913 c 0,8.5e-4 8e-5,0.004 0,0.005 -1.6e-4,8.1e-4 -0.002,0.004 -0.002,0.005 l -0.002,0.002 v 0.002 0.002 h -0.002 v 0.002 l -0.002,0.002 -0.002,0.002 h -0.002 c -6.4e-4,4.4e-4 -0.004,0.003 -0.005,0.003 h -0.002 c -7.6e-4,2.3e-4 -0.004,0.002 -0.005,0.002 -8.1e-4,8e-5 -0.003,0 -0.003,0 H 191.1777 c -8.4e-4,0 -0.004,8e-5 -0.005,0 -7.9e-4,-1.6e-4 -0.004,-0.002 -0.005,-0.002 l -0.002,-0.002 h -0.002 -0.002 v -0.002 h -0.002 l -0.002,-0.002 -0.002,-0.002 v -0.002 c -4.4e-4,-6.6e-4 -0.003,-0.004 -0.003,-0.005 v -0.002 c -2.4e-4,-7.8e-4 -0.002,-0.004 -0.002,-0.005 -8e-5,-8.3e-4 0,-0.003 0,-0.003 V 164.656 h -23.93932 c -8.4e-4,0 -0.004,9e-5 -0.005,0 -7.9e-4,-1.6e-4 -0.004,-0.002 -0.005,-0.002 h -0.002 c -6.8e-4,-3.9e-4 -0.004,-0.003 -0.005,-0.003 l -0.002,-0.002 -0.002,-0.002 v -0.002 l -0.002,-0.002 -0.002,-0.002 v -0.002 -0.002 l -0.002,-0.002 v -0.002 c 3e-5,-8.6e-4 4e-5,-0.003 0,-0.003 v -16.50162 -0.002 -0.002 -0.002 l 0.002,-0.002 c 2.3e-4,-7.7e-4 0.002,-0.004 0.002,-0.005 l 0.002,-0.002 v -0.002 l 0.002,-0.002 0.002,-0.002 0.002,-0.002 h 0.002 v -0.002 h 0.002 0.002 l 0.002,-0.002 c 7.6e-4,-2.4e-4 0.004,-0.002 0.005,-0.002 8.1e-4,-8e-5 0.003,0 0.003,0 h 23.9405 v -25.40101 c 0,-8.7e-4 -9e-5,-0.004 0,-0.005 1.6e-4,-8.1e-4 0.002,-0.004 0.002,-0.005 l 0.002,-0.002 v -0.002 -0.002 h 0.002 v -0.002 l 0.002,-0.002 0.002,-0.002 h 0.002 c 6.5e-4,-4.5e-4 0.004,-0.003 0.005,-0.003 h 0.002 z m 29.23701,10.57064 -5.27642,11.52947 -5.3075,-4.87475 z m -43.05677,0.73045 11.22651,5.41883 -4.74666,5.45072 z m 38.45727,33.86468 6.47986,10.86953 -11.22652,-5.42049 z m -33.37869,0.54071 5.3075,4.87475 -10.58556,6.65472 z"
     sodipodi:nodetypes="ccccsscccsssssccccccccccccccccccssscccccccccccsscccccccccccccccsccccccccccccccccccccscsscccccccccccsssscccccccccccsscsscccccccccccscccccccccccccccccsscsscccccccccccccccccccccccccccc" /><g
     inkscape:groupmode="layer"
     id="layer1"
     inkscape:label="Merge" /><path
     sodipodi:type="star"
     style="fill:#000000;fill-opacity:1;stroke:#000000;stroke-linecap:round;stroke-linejoin:round;stroke-miterlimit:167.9;paint-order:stroke markers fill"
     id="path5"
     inkscape:flatsided="true"
     sodipodi:sides="3"
     sodipodi:cx="584.5"
     sodipodi:cy="-70"
     sodipodi:r1="56.870464"
     sodipodi:r2="28.435232"
     sodipodi:arg1="1.0047414"
     sodipodi:arg2="2.051939"
     inkscape:rounded="0"
     inkscape:randomized="0"
     d="m 615,-22.000003 -87.31922,-45.586221 83.13844,-52.827546 z"
     inkscape:transform-center-x="12.657246"
     inkscape:transform-center-y="0.23393678"
     transform="matrix(-0.50802148,0.36609499,-0.76735544,-0.24237024,367.1052,-100.96144)" /></svg>
