<?xml version="1.0" encoding="UTF-8" standalone="no"?>
<!-- Created with Inkscape (http://www.inkscape.org/) by Toomai Glittershine for SmashWiki -->

<svg
   id="svg2"
   version="1.1"
   height="256"
   width="256"
   viewBox="0 0 256 256"
   sodipodi:docname="nes.svg"
   inkscape:version="1.4.2 (f4327f4, 2025-05-13)"
   xml:space="preserve"
   xmlns:inkscape="http://www.inkscape.org/namespaces/inkscape"
   xmlns:sodipodi="http://sodipodi.sourceforge.net/DTD/sodipodi-0.dtd"
   xmlns="http://www.w3.org/2000/svg"
   xmlns:svg="http://www.w3.org/2000/svg"
   xmlns:rdf="http://www.w3.org/1999/02/22-rdf-syntax-ns#"
   xmlns:cc="http://creativecommons.org/ns#"
   xmlns:dc="http://purl.org/dc/elements/1.1/"><defs
     id="defs1" /><sodipodi:namedview
     id="namedview1"
     pagecolor="#505050"
     bordercolor="#ffffff"
     borderopacity="1"
     inkscape:showpageshadow="0"
     inkscape:pageopacity="0"
     inkscape:pagecheckerboard="1"
     inkscape:deskcolor="#505050"
     inkscape:zoom="1.4142136"
     inkscape:cx="101.82338"
     inkscape:cy="68.235804"
     inkscape:window-width="1920"
     inkscape:window-height="1009"
     inkscape:window-x="-8"
     inkscape:window-y="60"
     inkscape:window-maximized="1"
     inkscape:current-layer="svg2" /><metadata
     id="metadata7"><rdf:RDF><cc:Work
         rdf:about=""><dc:format>image/svg+xml</dc:format><dc:type
           rdf:resource="http://purl.org/dc/dcmitype/StillImage" /></cc:Work></rdf:RDF></metadata><path
     id="path4"
     style="fill:#000000;stroke-width:0.978957"
     d="m 16.875711,29.382878 -2.960842,2.512915 C 12.2234,33.331701 10.508486,36.04332 9.9143289,38.221344 L 8.874631,42.033981 8.825319,99.508351 8.789598,142.1594 l -0.00697,7.84519 -0.00697,6.97812 h 26.519946 28.367907 v 8.80061 8.80061 H 36.219584 8.7756586 v 15.44343 15.44342 l 1.6710044,4.08124 c 2.578465,6.30126 4.52985,7.31259 15.318092,7.93173 h 0.0017 c 8.932946,0.51266 45.708957,0.67087 48.135775,0.2073 l 1.089045,-0.2073 V 165.78332 114.0829 h 1.136684 c 0.625338,0 6.996249,6.9693 14.157581,15.48669 7.161336,8.51736 15.37321,18.09958 18.24831,21.29487 l 5.22741,5.80999 66.43173,0.66699 9.27389,0.0938 V 29.382878 h -25.68954 l -2.13871,2.700392 -2.13725,2.700392 v 36.898749 c -1e-5,20.295032 -0.29405,36.895309 -0.65342,36.887929 -0.77725,-0.0163 -9.88437,-10.493373 -42.06432,-48.397945 C 103.59209,44.634128 91.954775,31.349653 90.922238,30.651954 L 89.045335,29.382878 H 52.960528 Z m 193.100859,0 V 157.74704 l 36.64843,0.26139 -0.0493,-58.537931 -0.0493,-58.537947 -1.03969,-3.733318 c -0.67056,-2.407827 -2.11785,-4.459599 -4.07541,-5.77574 l -3.03575,-2.040616 z M 168.69704,175.02378 c -42.22277,-0.26353 -59.47047,-0.27572 -59.64416,0.21451 -0.194,0.54759 -1.14079,10.53361 -1.00089,22.19262 l 0.17881,21.19934 51.52416,-0.29925 8.94208,-0.0342 z m 69.61548,0.79318 v 40.98177 l 1.96369,-1.42049 c 4.72859,-3.41993 6.61536,-8.37043 7.06007,-18.52058 l 0.34884,-7.97499 h -0.0527 c 0,0 1.31876,-12.53199 -1.07714,-12.75386 -1.14691,-0.1062 -4.02581,-0.21069 -8.24271,-0.31185 z M 185.0234,204.4842 c -4.74087,-1.50507 -7.82732,-6.25841 -7.82732,-12.05458 0,-11.39201 12.6089,-15.99679 20.20739,-7.37971 l 1.94303,2.20351 0.33921,4.11281 0.33921,4.11279 -1.53057,3.00981 c -2.52566,4.96665 -8.43168,7.59516 -13.47095,5.99537 z m 27.48373,-0.12838 c -5.41344,-2.07112 -8.08052,-6.65675 -7.51271,-12.91699 l 0.37962,-4.18537 1.94305,-2.2035 c 1.06867,-1.21193 2.92945,-2.74721 4.13505,-3.41172 4.38127,-2.41492 9.56335,-1.11024 13.55077,3.41172 l 1.94303,2.2035 0.38158,4.20677 0.38156,4.20675 -1.32305,2.95364 c -2.22699,4.97168 -8.78803,7.6829 -13.8789,5.7352 z m -95.81568,-1.63724 -2.2246,-0.34496 0.053,-1.17834 c 0.0291,-0.6481 0.10068,-4.36703 0.15889,-8.2643 l 0.10595,-7.08594 -2.75787,0.18424 10.96409,0.18424 0.21158,7.91143 0.21154,7.91146 -0.84715,0.33116 c -1.22183,0.47762 -0.16338,0.35101 -2.82606,0.35101 z m 12.33762,-8.24082 v -8.60091 h 11.08334 11.08335 l 0.19854,7.44425 c 0.1092,4.09433 0.0267,7.9576 -0.18333,8.58505 l -0.38189,1.14081 -10.9,0.016 -10.90001,0.016 z"
     sodipodi:nodetypes="cccccccccccccccccccccccssccccccccscscccccccccsccccscccccccccccsscssscccsssscssscccsscccccccccsscccccsccccc" /></svg>
