<?xml version="1.0" encoding="UTF-8" standalone="no"?>
<!-- Created with Inkscape (http://www.inkscape.org/) by Toomai Glittershine for SmashWiki -->

<svg
   id="svg2"
   version="1.1"
   height="256"
   width="256"
   viewBox="0 0 256 256"
   sodipodi:docname="ps1.svg"
   inkscape:version="1.4.2 (f4327f4, 2025-05-13)"
   xml:space="preserve"
   xmlns:inkscape="http://www.inkscape.org/namespaces/inkscape"
   xmlns:sodipodi="http://sodipodi.sourceforge.net/DTD/sodipodi-0.dtd"
   xmlns="http://www.w3.org/2000/svg"
   xmlns:svg="http://www.w3.org/2000/svg"
   xmlns:rdf="http://www.w3.org/1999/02/22-rdf-syntax-ns#"
   xmlns:cc="http://creativecommons.org/ns#"
   xmlns:dc="http://purl.org/dc/elements/1.1/"><defs
     id="defs1" /><sodipodi:namedview
     id="namedview1"
     pagecolor="#505050"
     bordercolor="#ffffff"
     borderopacity="1"
     inkscape:showpageshadow="0"
     inkscape:pageopacity="0"
     inkscape:pagecheckerboard="1"
     inkscape:deskcolor="#505050"
     inkscape:zoom="1.5761719"
     inkscape:cx="13.640644"
     inkscape:cy="153.85378"
     inkscape:window-width="1920"
     inkscape:window-height="1009"
     inkscape:window-x="-8"
     inkscape:window-y="60"
     inkscape:window-maximized="1"
     inkscape:current-layer="svg2" /><metadata
     id="metadata7"><rdf:RDF><cc:Work
         rdf:about=""><dc:format>image/svg+xml</dc:format><dc:type
           rdf:resource="http://purl.org/dc/dcmitype/StillImage" /></cc:Work></rdf:RDF></metadata><path
     style="fill:#000000"
     d="m 118.32652,207.86071 c -16.81041,-5.18386 -16.81041,-5.18386 -16.92393,-84.78964 -0.12635,-88.602831 -0.31809,-80.771512 1.96453,-80.237541 70.54832,16.503279 87.39341,29.069441 87.427,65.219131 0.0256,27.55239 -15.4668,40.35689 -37.55907,31.04265 -2.61485,-1.10244 -2.61485,-1.10244 -2.85097,-30.22868 -0.21322,-26.301695 -0.31211,-29.353831 -1.01973,-31.473109 -1.76253,-5.278681 -7.79728,-8.419646 -10.57748,-5.505363 -2.16942,2.274049 -2.10161,-0.06404 -2.10161,72.468392 0,65.20583 -0.04,68.75927 -0.77417,68.72459 -0.42579,-0.0201 -8.33884,-2.3693 -17.58457,-5.22043 z m 26.76394,-8.33942 c 0,-10.60296 0,-10.60296 20.01766,-17.80295 38.31245,-13.78031 41.03067,-14.90684 41.03067,-17.00469 0,-1.56588 -1.27543,-2.36465 -5.32627,-3.33571 -7.12867,-1.70888 -12.06959,-0.83281 -28.73693,5.09531 -29.765,10.5866 -26.98513,10.74041 -26.98513,-1.49306 0,-12.05395 -0.60664,-11.44517 14.59851,-14.64997 35.25667,-7.43108 80.42136,3.21131 78.60794,18.52279 -0.64523,5.44795 -4.44729,8.43532 -18.22318,14.31837 -4.35937,1.86169 -70.06623,25.52787 -74.20911,26.72851 -0.722,0.20924 -0.77416,-0.49 -0.77416,-10.3786 z m -82.946095,-6.56057 c -0.729925,-0.0965 -3.317843,-0.39888 -5.750929,-0.67203 -34.971279,-3.92595 -49.2964271,-17.48895 -30.337302,-28.72325 5.440526,-3.2238 61.58012,-24.32505 64.716474,-24.32505 0.199828,0 0.310016,4.80055 0.244864,10.6679 -0.11846,10.66789 -0.11846,10.66789 -9.408423,13.9387 -30.55936,10.75932 -32.59995,11.74687 -30.152358,14.59236 2.983765,3.46884 19.509693,2.81484 29.04641,-1.14947 11.198408,-4.65506 10.617101,-4.9429 10.617101,5.25714 0,9.21855 0,9.21855 -3.870818,9.7563 -3.756985,0.52194 -22.430162,1.01092 -25.105019,0.6574 z"
     id="path7" /></svg>
