<?xml version="1.0" encoding="UTF-8" standalone="no"?>
<!-- Created with Inkscape (http://www.inkscape.org/) by Toomai Glittershine for SmashWiki -->

<svg
   id="svg2"
   version="1.1"
   height="256"
   width="256"
   viewBox="0 0 256 256"
   sodipodi:docname="ps3.svg"
   inkscape:version="1.4.2 (f4327f4, 2025-05-13)"
   xml:space="preserve"
   xmlns:inkscape="http://www.inkscape.org/namespaces/inkscape"
   xmlns:sodipodi="http://sodipodi.sourceforge.net/DTD/sodipodi-0.dtd"
   xmlns="http://www.w3.org/2000/svg"
   xmlns:svg="http://www.w3.org/2000/svg"
   xmlns:rdf="http://www.w3.org/1999/02/22-rdf-syntax-ns#"
   xmlns:cc="http://creativecommons.org/ns#"
   xmlns:dc="http://purl.org/dc/elements/1.1/"><defs
     id="defs1" /><sodipodi:namedview
     id="namedview1"
     pagecolor="#505050"
     bordercolor="#ffffff"
     borderopacity="1"
     inkscape:showpageshadow="0"
     inkscape:pageopacity="0"
     inkscape:pagecheckerboard="1"
     inkscape:deskcolor="#505050"
     inkscape:zoom="1.5761719"
     inkscape:cx="-12.371747"
     inkscape:cy="162.73606"
     inkscape:window-width="1920"
     inkscape:window-height="1009"
     inkscape:window-x="-8"
     inkscape:window-y="60"
     inkscape:window-maximized="1"
     inkscape:current-layer="svg2" /><metadata
     id="metadata7"><rdf:RDF><cc:Work
         rdf:about=""><dc:format>image/svg+xml</dc:format><dc:type
           rdf:resource="http://purl.org/dc/dcmitype/StillImage" /></cc:Work></rdf:RDF></metadata><path
     style="fill:#000000;stroke-width:0.899367"
     d="m 15.622852,215.19277 c -1.356618,-1.35663 -0.679132,-51.41449 0.78284,-57.84231 2.433882,-10.70096 9.823592,-20.92261 18.565807,-25.68072 9.160005,-4.98549 7.886454,-4.91216 85.511841,-4.9237 77.60357,-0.0112 75.28538,0.12589 80.53973,-4.77529 8.29744,-7.73971 8.79188,-29.285806 0.85901,-37.432143 -5.61655,-5.767676 -0.36571,-5.469712 -96.38959,-5.469712 -48.203989,0 -88.283802,-0.245661 -89.066243,-0.545905 -2.097526,-0.804904 -2.097526,-16.990005 0,-17.794909 4.484128,-1.720708 186.146253,-0.521125 193.654483,1.278774 43.24081,10.365883 43.47777,72.250485 0.31167,81.397895 -4.95864,1.0508 -18.68681,1.2905 -74.87355,1.30735 -92.485352,0.0277 -85.413847,-3.54782 -86.288634,43.62992 -0.500301,26.98101 -0.500301,26.98101 -16.744229,27.22549 -8.934151,0.13447 -16.522566,-0.0342 -16.863135,-0.37474 z"
     id="path7"
     sodipodi:nodetypes="ssssssssscsssss" /></svg>
