<?xml version="1.0" encoding="UTF-8" standalone="no"?>
<!-- Created with Inkscape (http://www.inkscape.org/) by Toomai Glittershine for SmashWiki -->

<svg
   id="svg2"
   version="1.1"
   height="256"
   width="256"
   viewBox="0 0 256 256"
   sodipodi:docname="psp.svg"
   inkscape:version="1.4.2 (f4327f4, 2025-05-13)"
   xml:space="preserve"
   xmlns:inkscape="http://www.inkscape.org/namespaces/inkscape"
   xmlns:sodipodi="http://sodipodi.sourceforge.net/DTD/sodipodi-0.dtd"
   xmlns="http://www.w3.org/2000/svg"
   xmlns:svg="http://www.w3.org/2000/svg"
   xmlns:rdf="http://www.w3.org/1999/02/22-rdf-syntax-ns#"
   xmlns:cc="http://creativecommons.org/ns#"
   xmlns:dc="http://purl.org/dc/elements/1.1/"><defs
     id="defs1" /><sodipodi:namedview
     id="namedview1"
     pagecolor="#505050"
     bordercolor="#ffffff"
     borderopacity="1"
     inkscape:showpageshadow="0"
     inkscape:pageopacity="0"
     inkscape:pagecheckerboard="1"
     inkscape:deskcolor="#505050"
     inkscape:zoom="1.4142136"
     inkscape:cx="47.729708"
     inkscape:cy="88.034794"
     inkscape:window-width="1920"
     inkscape:window-height="1009"
     inkscape:window-x="-8"
     inkscape:window-y="60"
     inkscape:window-maximized="1"
     inkscape:current-layer="svg2" /><metadata
     id="metadata7"><rdf:RDF><cc:Work
         rdf:about=""><dc:format>image/svg+xml</dc:format><dc:type
           rdf:resource="http://purl.org/dc/dcmitype/StillImage" /></cc:Work></rdf:RDF></metadata><path
     style="fill:#000000;stroke-width:0.726575"
     d="M 117.66301,244.82276 C 78.721864,241.75994 43.499996,217.88131 26.104737,182.75094 18.753619,167.90507 15.565481,156.66379 14.075521,140.3363 13.15732,130.27431 13.971453,118.06951 16.260441,107.58173 20.656236,87.440943 31.650715,66.785614 45.60771,52.447037 96.235599,0.43498665 181.68021,8.2962627 222.02973,68.678633 c 24.322,36.397457 25.37775,83.964637 2.697,121.513777 -22.29091,36.90373 -63.71341,58.03998 -107.06372,54.63035 z m 30.15288,-11.19339 c 44.01429,-9.75482 76.28164,-42.99921 83.21275,-85.73237 1.36376,-8.40817 1.36376,-23.60447 0,-32.01265 -2.23958,-13.80792 -8.29482,-29.415421 -15.67584,-40.404768 -15.72911,-23.418539 -39.65252,-39.345314 -68.26349,-45.445765 -4.79142,-1.021622 -9.43347,-1.316823 -20.70739,-1.316823 -16.17392,0 -21.21756,0.74894 -34.258985,5.087189 C 76.650936,38.95096 63.564901,47.12775 51.496609,59.189473 36.664302,74.013708 27.472108,90.88621 23.035349,111.43083 c -1.817709,8.41699 -1.817709,32.5027 0,40.91969 4.436759,20.54463 13.628953,37.41713 28.46126,52.24136 16.167986,16.15919 34.550928,25.63358 57.810791,29.79513 7.5317,1.34754 31.10226,0.8838 38.50849,-0.75764 z M 54.087679,138.42985 v -6.90246 h 21.797258 21.797262 v -4.72274 -4.72273 H 75.884937 c -18.890957,0 -21.797258,-0.14532 -21.797258,-1.08987 0,-0.94571 3.0274,-1.08987 22.88712,-1.08987 h 22.88712 v 6.90247 6.90246 H 78.064662 56.267404 v 5.81261 c 0,4.68237 -0.211919,5.8126 -1.089862,5.8126 -0.892286,0 -1.089863,-1.25133 -1.089863,-6.90247 z m 45.04767,5.8126 c 0,-0.92473 1.816431,-1.08986 11.988491,-1.08986 h 11.98849 v -11.6252 -11.62521 h 12.71506 c 10.81791,0 12.71507,0.16262 12.71507,1.08987 0,0.92335 -1.77606,1.08987 -11.6252,1.08987 h -11.62521 v 11.62519 11.62521 H 112.2137 c -11.14082,0 -13.078351,-0.16146 -13.078351,-1.08987 z m 55.219711,-5.8126 v -6.90246 h 21.79726 21.79726 v -4.72274 -4.72273 h -21.79726 c -18.89095,0 -21.79726,-0.14532 -21.79726,-1.08987 0,-0.94571 3.0274,-1.08987 22.88712,-1.08987 h 22.88712 v 6.90247 6.90246 h -21.79726 -21.79726 v 5.81261 c 0,4.68237 -0.21191,5.8126 -1.08985,5.8126 -0.8923,0 -1.08987,-1.25133 -1.08987,-6.90247 z"
     id="path2"
     sodipodi:nodetypes="sssssssssssssssssssssscccccssscccccssssscccssscccssscccccssscccccsss" /></svg>
