<?xml version="1.0" encoding="UTF-8" standalone="no"?>
<!-- Created with Inkscape (http://www.inkscape.org/) by Toomai Glittershine for SmashWiki -->

<svg
   id="svg2"
   version="1.1"
   height="256"
   width="256"
   viewBox="0 0 256 256"
   sodipodi:docname="roblox.svg"
   inkscape:version="1.4.2 (f4327f4, 2025-05-13)"
   xmlns:inkscape="http://www.inkscape.org/namespaces/inkscape"
   xmlns:sodipodi="http://sodipodi.sourceforge.net/DTD/sodipodi-0.dtd"
   xmlns="http://www.w3.org/2000/svg"
   xmlns:svg="http://www.w3.org/2000/svg"
   xmlns:rdf="http://www.w3.org/1999/02/22-rdf-syntax-ns#"
   xmlns:cc="http://creativecommons.org/ns#"
   xmlns:dc="http://purl.org/dc/elements/1.1/">
  <defs
     id="defs1" />
  <sodipodi:namedview
     id="namedview1"
     pagecolor="#505050"
     bordercolor="#ffffff"
     borderopacity="1"
     inkscape:showpageshadow="0"
     inkscape:pageopacity="0"
     inkscape:pagecheckerboard="1"
     inkscape:deskcolor="#505050"
     inkscape:zoom="1.4142136"
     inkscape:cx="-9.1923879"
     inkscape:cy="162.281"
     inkscape:window-width="1920"
     inkscape:window-height="1009"
     inkscape:window-x="-8"
     inkscape:window-y="60"
     inkscape:window-maximized="1"
     inkscape:current-layer="svg2" />
  <metadata
     id="metadata7">
    <rdf:RDF>
      <cc:Work
         rdf:about="">
        <dc:format>image/svg+xml</dc:format>
        <dc:type
           rdf:resource="http://purl.org/dc/dcmitype/StillImage" />
        <dc:title />
      </cc:Work>
    </rdf:RDF>
  </metadata>
  <path
     id="rect3"
     style="fill:#000000;fill-opacity:1;stroke-width:0.922736"
     d="M 86.574217 -10.357836 C 86.553504 -10.349104 86.538863 -10.327871 86.538863 -10.303909 L 86.539786 155.21061 C 86.539786 155.24256 86.564951 155.26991 86.596901 155.26991 L 252.11214 155.2708 C 252.14409 155.2708 252.17072 155.24382 252.17072 155.21187 L 252.1698 -10.302645 C 252.1698 -10.334595 252.14463 -10.361946 252.11268 -10.361946 L 86.598164 -10.361023 C 86.590177 -10.361023 86.581121 -10.360746 86.574217 -10.357836 z M 146.1591 47.225004 L 146.16092 47.224284 L 146.16273 47.223565 L 146.16455 47.222845 L 146.16636 47.222125 L 146.16818 47.221406 L 146.17072 47.222502 L 194.26823 47.221512 L 194.27005 47.220793 L 194.27077 47.222609 L 194.27259 47.221889 L 194.27512 47.222985 L 194.27766 47.224081 L 194.27838 47.225897 L 194.2791 47.227713 L 194.28091 47.226993 L 194.28163 47.228809 L 194.28235 47.230625 L 194.28307 47.232441 L 194.28379 47.234256 L 194.28451 47.236072 L 194.28523 47.237888 L 194.2844 95.336127 L 194.28512 95.337942 L 194.28331 95.338662 L 194.28403 95.340478 L 194.28293 95.343013 L 194.28183 95.345548 L 194.28002 95.346268 L 194.27892 95.348803 L 194.27711 95.349523 L 194.27529 95.350242 L 194.27347 95.350962 L 194.27166 95.351681 L 194.26984 95.352401 L 194.26803 95.35312 L 146.16979 95.352294 L 146.16725 95.351198 L 146.16544 95.351918 L 146.16472 95.350102 L 146.1629 95.350822 L 146.16037 95.349725 L 146.15965 95.34791 L 146.15711 95.346813 L 146.15639 95.344998 L 146.15567 95.343182 L 146.15495 95.341366 L 146.15423 95.33955 L 146.15351 95.337735 L 146.15461 95.335199 L 146.15362 47.23768 L 146.15472 47.235145 L 146.154 47.233329 L 146.15581 47.23261 L 146.15509 47.230794 L 146.15619 47.228259 L 146.15801 47.227539 L 146.15982 47.226819 L 146.1591 47.225004 z "
     transform="rotate(21.617672)" />
</svg>
