<?xml version="1.0" encoding="UTF-8" standalone="no"?>
<!-- Created with Inkscape (http://www.inkscape.org/) by Toomai Glittershine for SmashWiki -->

<svg
   id="svg2"
   version="1.1"
   height="256"
   width="256"
   viewBox="0 0 256 256"
   sodipodi:docname="gamecube.svg"
   inkscape:version="1.4.2 (f4327f4, 2025-05-13)"
   xml:space="preserve"
   xmlns:inkscape="http://www.inkscape.org/namespaces/inkscape"
   xmlns:sodipodi="http://sodipodi.sourceforge.net/DTD/sodipodi-0.dtd"
   xmlns="http://www.w3.org/2000/svg"
   xmlns:svg="http://www.w3.org/2000/svg"
   xmlns:rdf="http://www.w3.org/1999/02/22-rdf-syntax-ns#"
   xmlns:cc="http://creativecommons.org/ns#"
   xmlns:dc="http://purl.org/dc/elements/1.1/"><defs
     id="defs1" /><sodipodi:namedview
     id="namedview1"
     pagecolor="#505050"
     bordercolor="#ffffff"
     borderopacity="1"
     inkscape:showpageshadow="0"
     inkscape:pageopacity="0"
     inkscape:pagecheckerboard="1"
     inkscape:deskcolor="#505050"
     inkscape:zoom="2"
     inkscape:cx="33.25"
     inkscape:cy="157.25"
     inkscape:window-width="1920"
     inkscape:window-height="1009"
     inkscape:window-x="-8"
     inkscape:window-y="60"
     inkscape:window-maximized="1"
     inkscape:current-layer="svg2" /><metadata
     id="metadata7"><rdf:RDF><cc:Work
         rdf:about=""><dc:format>image/svg+xml</dc:format><dc:type
           rdf:resource="http://purl.org/dc/dcmitype/StillImage" /></cc:Work></rdf:RDF></metadata><path
     style="fill:#000000;stroke-width:0.421642"
     d="m 135.90199,212.8723 c -18.34415,-2.22292 -32.4674,-9.26354 -36.96816,-18.42909 -1.004976,-2.04658 -1.190485,-2.94995 -1.190485,-5.79749 0,-4.54011 1.337245,-7.33044 5.455855,-11.38434 5.96004,-5.86639 15.23852,-9.84743 28.48636,-12.22238 5.34546,-0.95828 17.97893,-1.30884 24.09732,-0.66866 18.92215,1.97984 33.54385,9.05825 38.16939,18.47791 1.00498,2.04657 1.19048,2.94995 1.19048,5.79747 0,4.47633 -1.34763,7.33214 -5.30852,11.24945 -6.02502,5.95873 -15.22207,9.90974 -28.84452,12.39151 -4.45838,0.81224 -20.18767,1.1794 -25.08772,0.58562 z m 67.67473,-34.74343 c -0.0666,-0.24522 -0.32758,-2.34324 -0.5802,-4.66227 -0.62662,-5.75269 -1.50122,-8.99432 -3.68588,-13.66129 -3.86364,-8.25372 -8.34304,-13.60766 -14.91977,-17.83262 -6.21141,-3.99026 -12.89396,-6.1145 -20.55506,-6.53399 -4.74348,-0.25974 -4.74348,-0.25974 -4.74348,-2.55346 0,-6.03237 3.03513,-15.40564 6.88786,-21.27154 5.81186,-8.84872 14.6719,-15.34549 24.94614,-18.29217 4.69379,-1.34619 12.31047,-1.80508 17.46091,-1.05199 16.64911,2.43443 30.51947,14.63893 35.23325,31.00165 2.30922,8.01592 2.29503,16.05331 -0.0425,24.11646 -4.22308,14.56686 -16.1918,26.12928 -30.96518,29.91406 -3.57926,0.91696 -8.88009,1.4022 -9.03603,0.82716 z m -151.7924,-9.34456 c -21.547594,-1.59111 -37.481269,-9.458 -40.750374,-20.11958 -2.404929,-7.84319 2.505893,-15.28221 13.765252,-20.85188 7.514254,-3.71706 15.279822,-5.61628 26.319048,-6.43677 17.225577,-1.28031 35.027308,2.80496 45.046698,10.33764 8.696846,6.53838 10.268926,15.28821 4.099566,22.81712 -3.81473,4.65536 -12.534676,9.39134 -21.631803,11.74864 -7.095387,1.83859 -19.808455,3.02467 -26.848387,2.50483 z m 65.88164,-34.78787 c -0.47729,-0.2697 -0.73788,-0.92545 -0.73788,-1.85681 0,-4.39293 -3.19204,-15.42464 -5.79339,-20.02201 C 104.1497,99.77307 90.108268,90.722244 76.166152,89.577611 c -5.288279,-0.43416 -5.197099,-0.390293 -5.197099,-2.500517 0,-2.852756 1.14364,-8.723511 2.36343,-12.132356 2.800735,-7.827013 8.2341,-15.349244 14.992905,-20.756961 8.233005,-6.587211 17.476772,-9.482165 28.753672,-9.005035 6.95988,0.294475 10.49288,1.17516 16.5039,4.11399 8.15369,3.986402 15.57446,10.255214 19.10729,16.141191 1.79381,2.988627 4.83261,10.512402 5.99609,14.845694 2.36132,8.794592 1.06449,20.368433 -3.2126,28.671693 -5.20715,10.10882 -14.01501,18.41633 -23.78818,22.43683 -4.7978,1.97374 -12.5779,3.41897 -14.0196,2.6043 z"
     id="path1"
     sodipodi:nodetypes="ssssssssssssssssssssssssssssssssssssssssssssss" /></svg>
