<?xml version="1.0" encoding="UTF-8" standalone="no"?>
<!-- Created with Inkscape (http://www.inkscape.org/) by Toomai Glittershine for SmashWiki -->

<svg
   id="svg2"
   version="1.1"
   height="256"
   width="256"
   viewBox="0 0 256 256"
   sodipodi:docname="xbox.svg"
   inkscape:version="1.4.2 (f4327f4, 2025-05-13)"
   xml:space="preserve"
   xmlns:inkscape="http://www.inkscape.org/namespaces/inkscape"
   xmlns:sodipodi="http://sodipodi.sourceforge.net/DTD/sodipodi-0.dtd"
   xmlns="http://www.w3.org/2000/svg"
   xmlns:svg="http://www.w3.org/2000/svg"
   xmlns:rdf="http://www.w3.org/1999/02/22-rdf-syntax-ns#"
   xmlns:cc="http://creativecommons.org/ns#"
   xmlns:dc="http://purl.org/dc/elements/1.1/"><defs
     id="defs1" /><sodipodi:namedview
     id="namedview1"
     pagecolor="#505050"
     bordercolor="#ffffff"
     borderopacity="1"
     inkscape:showpageshadow="0"
     inkscape:pageopacity="0"
     inkscape:pagecheckerboard="1"
     inkscape:deskcolor="#505050"
     inkscape:zoom="1.4142136"
     inkscape:cx="-1.767767"
     inkscape:cy="97.227182"
     inkscape:window-width="1920"
     inkscape:window-height="1009"
     inkscape:window-x="-8"
     inkscape:window-y="60"
     inkscape:window-maximized="1"
     inkscape:current-layer="svg2" /><metadata
     id="metadata7"><rdf:RDF><cc:Work
         rdf:about=""><dc:format>image/svg+xml</dc:format><dc:type
           rdf:resource="http://purl.org/dc/dcmitype/StillImage" /></cc:Work></rdf:RDF></metadata><path
     style="fill:#000000;stroke-width:0.771389"
     d="m 123.00106,242.63179 c -10.60017,-0.37375 -20.77593,-2.25478 -31.175418,-5.7629 -5.10064,-1.72063 -9.71369,-3.64267 -14.62586,-6.0939 -4.99836,-2.49423 -8.73985,-4.68453 -13.86253,-8.11524 -8.982,-6.01532 -12.185972,-9.36407 -13.150889,-13.74512 -0.265513,-1.2055 -0.313654,-1.75025 -0.309713,-3.5043 0.0046,-2.13912 0.200624,-3.68185 0.763468,-6.01522 3.166614,-13.12767 15.419334,-31.97835 34.771494,-53.4956 6.43448,-7.15436 13.8515,-14.72933 21.467398,-21.92461 10.81551,-10.21817 19.62452,-17.49871 21.54368,-17.80561 0.84169,-0.13457 3.46162,1.77685 8.59356,6.26963 10.17657,8.90915 26.91806,25.56481 37.43845,37.24653 3.91716,4.34957 6.79736,7.80924 10.60008,12.73274 11.94491,15.46548 19.61938,29.4933 21.41975,39.15231 0.34892,1.87196 0.40406,2.46958 0.40224,4.35892 -0.002,1.54634 -0.0174,1.82899 -0.14317,2.53433 -0.4803,2.69355 -1.50045,4.43386 -4.03957,6.89127 -7.01251,6.78679 -22.64789,15.8583 -35.74043,20.73626 -9.78286,3.64486 -21.56884,5.8518 -34.60902,6.48059 -1.77084,0.0853 -7.5668,0.1226 -9.34346,0.0599 z M 36.886729,197.3032 c -0.966359,-0.82497 -5.408694,-7.55193 -8.176356,-12.38131 -8.120816,-14.17023 -12.666964,-29.25359 -14.927329,-49.52645 -0.867349,-7.77911 -0.601631,-12.09995 1.618662,-26.32046 0.233361,-1.49466 0.522362,-3.25343 0.642212,-3.90838 1.902819,-10.398314 6.183787,-22.160604 11.891046,-32.671574 5.196369,-9.57005 11.142049,-17.64075 17.702652,-24.029703 1.874563,-1.825497 2.983921,-2.601297 4.203528,-2.939628 0.644364,-0.178769 1.96024,-0.149915 2.93128,0.06408 1.905608,0.420084 5.486368,1.653372 7.816748,2.692259 0.98173,0.437655 3.40091,1.673203 4.458,2.276845 6.14589,3.509544 13.16677,8.897937 22.4121,17.200857 1.16647,1.04759 8.83453,7.96461 9.21126,8.30908 0.0664,0.0607 -0.27773,0.5141 -1.85914,2.44884 -4.94695,6.0523 -7.16971,8.87702 -10.71042,13.61086 -10.56785,14.128994 -21.16203,30.504704 -29.63087,45.801284 -5.069948,9.15742 -9.278897,17.78504 -12.10824,24.81979 -2.909528,7.23411 -4.858801,14.08367 -5.858028,20.58455 -0.381868,2.48438 -0.548096,4.55362 -0.544548,6.77858 0.0039,2.62263 0.172445,3.77069 0.847489,5.78263 0.492261,1.46716 0.509733,1.77478 0.07995,1.40787 z m 182.802641,-0.67145 c 0.0189,-0.2771 0.17249,-1.19084 0.34143,-2.03052 0.45696,-2.27148 0.46622,-2.37268 0.46352,-5.06866 -0.002,-1.81941 -0.0278,-2.63398 -0.11028,-3.45037 -0.48813,-4.83182 -1.49044,-9.60103 -3.16368,-15.05335 -2.28654,-7.45088 -6.80531,-17.52349 -13.13655,-29.2823 -10.38674,-19.29091 -24.08966,-40.32488 -36.74031,-56.396294 -0.82376,-1.04651 -3.16258,-3.98985 -6.92023,-8.70892 l -0.46702,-0.58651 3.12093,-2.86386 c 6.6959,-6.14439 8.25128,-7.54364 11.09922,-9.98501 5.84615,-5.01155 11.00772,-8.841175 16.00874,-11.877633 4.94784,-3.00418 11.78764,-5.697518 15.42597,-6.074348 0.7802,-0.08078 1.02534,-0.04283 1.60042,0.247386 2.7999,1.413389 9.24575,8.402847 14.36264,15.573885 8.6442,12.11437 15.14495,26.75474 18.71013,42.137164 0.82818,3.57324 1.23337,6.11171 1.61324,10.10681 0.45612,4.79695 0.63999,9.20718 0.64033,15.3587 5.1e-4,9.03023 -0.47759,15.5462 -1.51673,20.67164 -1.64023,8.0902 -4.92971,18.4905 -8.1703,25.83193 -2.6935,6.10201 -10.14954,18.78526 -12.71755,21.63347 -0.42025,0.4661 -0.48622,0.43887 -0.44387,-0.18321 z M 127.58116,45.776488 c -0.39837,-0.138786 -2.64191,-1.229882 -7.11445,-3.459847 -4.4954,-2.241365 -6.12332,-3.009156 -8.91597,-4.205091 -8.8416,-3.786339 -19.359108,-7.217485 -25.434978,-8.297653 -3.19755,-0.568465 -7.63923,-0.814081 -11.75567,-0.65005 -3.09862,0.12344 -3.93891,0.05801 -3.93891,-0.306779 0,-0.366847 0.99222,-0.973727 4.18318,-2.558633 10.82944,-5.378818 18.0928,-8.085849 27.786108,-10.355814 5.08015,-1.189645 8.44715,-1.726003 13.37398,-2.130404 3.82383,-0.313878 6.55726,-0.429393 11.17551,-0.472276 10.12593,-0.0941 18.11856,0.555109 24.62552,2.000033 11.71227,2.600808 25.29959,7.71541 33.20623,12.499657 1.40175,0.848179 2.5393,1.556813 2.52097,1.570421 -0.0101,0.0067 -1.24006,-0.0516 -2.73472,-0.130016 -5.14849,-0.270574 -8.02025,-0.172412 -12.03046,0.41118 -8.54936,1.244165 -18.94388,4.502848 -29.57249,9.270974 -2.04856,0.919039 -2.82711,1.282765 -5.63342,2.631888 -4.27536,2.055362 -7.01148,3.307671 -8.67172,3.968986 -0.66946,0.266661 -0.82622,0.297977 -1.06871,0.213474 z"
     id="path1" /></svg>
